<svg xmlns="http://www.w3.org/2000/svg" xmlns:xlink="http://www.w3.org/1999/xlink" width="192" height="192" preserveAspectRatio="xMidYMid meet" viewBox="0 0 192 192" style="-ms-transform: rotate(360deg); -webkit-transform: rotate(360deg); transform: rotate(360deg);"><path d="M2 3.993A1 1 0 0 1 2.992 3h18.016c.548 0 .992.445.992.993v16.014a1 1 0 0 1-.992.993H2.992A.993.993 0 0 1 2 20.007V3.993zM4 5v14h16V5H4zm6.622 3.415l4.879 3.252a.4.4 0 0 1 0 .666l-4.88 3.252a.4.4 0 0 1-.621-.332V8.747a.4.4 0 0 1 .622-.332z" fill="#00D1B2"/><rect x="0" y="0" width="192" height="192" fill="rgba(0, 0, 0, 0)" /></svg>